<?xml version="1.0" standalone="no"?>
<!DOCTYPE svg PUBLIC "-//W3C//DTD SVG 20010904//EN"
 "http://www.w3.org/TR/2001/REC-SVG-20010904/DTD/svg10.dtd">
<svg version="1.0" xmlns="http://www.w3.org/2000/svg"
 width="512.000000pt" height="512.000000pt" viewBox="0 0 512.000000 512.000000"
 preserveAspectRatio="xMidYMid meet">

<g transform="translate(0.000000,512.000000) scale(0.100000,-0.100000)"
fill="#fff" stroke="none">
<path d="M2315 5109 c-800 -83 -1501 -518 -1927 -1196 -487 -774 -516 -1777
-75 -2578 117 -213 253 -395 430 -573 212 -215 419 -364 692 -498 260 -127
509 -203 810 -246 119 -17 512 -16 635 1 622 86 1148 360 1572 820 349 378
572 862 650 1406 17 118 17 512 0 630 -59 416 -191 769 -410 1099 -92 140
-185 254 -315 385 -399 404 -893 653 -1462 737 -123 18 -478 26 -600 13z m517
-435 c462 -59 897 -273 1228 -604 551 -549 760 -1353 546 -2098 -211 -730
-791 -1294 -1523 -1478 -74 -19 -143 -34 -154 -34 -19 0 -19 18 -19 700 l0
700 330 0 c182 0 330 2 330 5 0 3 23 152 50 330 28 178 50 329 50 335 0 7
-126 10 -380 10 l-380 0 0 245 c0 273 11 355 59 460 36 78 77 124 143 161 l53
29 258 3 257 3 0 294 0 293 -27 6 c-138 29 -587 35 -729 11 -163 -28 -296 -83
-410 -169 -170 -127 -288 -367 -323 -651 -6 -49 -11 -224 -11 -387 l0 -298
-320 0 -320 0 2 -337 3 -338 318 -3 317 -2 0 -701 c0 -662 -1 -700 -17 -696
-10 3 -54 13 -98 22 -277 60 -632 236 -864 429 -107 89 -275 266 -351 369
-392 529 -519 1186 -354 1822 212 818 928 1455 1759 1565 50 6 97 13 105 15
51 10 365 3 472 -11z"/>
</g>
</svg>
