<?xml version="1.0" standalone="no"?>
<!DOCTYPE svg PUBLIC "-//W3C//DTD SVG 20010904//EN"
 "http://www.w3.org/TR/2001/REC-SVG-20010904/DTD/svg10.dtd">
<svg version="1.0" xmlns="http://www.w3.org/2000/svg"
 width="1043.000000pt" height="1033.000000pt" viewBox="0 0 1043.000000 1033.000000"
 preserveAspectRatio="xMidYMid meet">

<g transform="translate(0.000000,1033.000000) scale(0.100000,-0.100000)"
fill="#fff" stroke="none">
<path d="M3785 10284 c-238 -5 -713 -24 -855 -35 -855 -63 -1486 -321 -1977
-807 -328 -325 -543 -688 -686 -1162 -165 -546 -193 -1067 -184 -3435 6 -1484
17 -1850 68 -2237 79 -599 291 -1120 617 -1511 511 -614 1206 -937 2167 -1006
427 -31 728 -36 2265 -36 1537 0 1838 5 2265 36 864 62 1499 323 1995 819 496
496 757 1131 819 1995 31 427 36 728 36 2265 0 1735 -9 2107 -61 2525 -76 615
-291 1150 -623 1549 -454 546 -1075 870 -1869 975 -164 22 -348 36 -682 52
-203 10 -2922 20 -3295 13z m3375 -933 c541 -29 821 -81 1125 -210 216 -92
379 -205 551 -383 251 -260 402 -570 479 -985 72 -388 80 -644 80 -2603 0
-1959 -8 -2215 -80 -2603 -77 -415 -228 -725 -479 -985 -172 -178 -335 -291
-551 -383 -313 -133 -591 -183 -1165 -211 -376 -18 -3464 -18 -3840 0 -574 28
-852 78 -1165 211 -216 92 -379 205 -551 383 -251 260 -402 570 -479 985 -72
388 -80 644 -80 2603 0 1959 8 2215 80 2603 77 415 228 725 479 985 172 178
335 291 551 383 317 134 609 186 1170 209 149 6 304 12 345 14 223 9 3337 -2
3530 -13z"/>
<path d="M7772 8490 c-109 -29 -187 -75 -273 -160 -84 -84 -136 -173 -164
-280 -26 -98 -17 -272 18 -362 66 -170 195 -299 365 -365 90 -35 264 -44 362
-18 160 41 321 169 392 312 168 336 9 736 -342 860 -103 36 -253 42 -358 13z"/>
<path d="M5045 7794 c-116 -9 -248 -27 -365 -50 -1014 -201 -1825 -998 -2045
-2009 -46 -211 -58 -336 -58 -570 0 -292 30 -497 111 -766 272 -896 1029
-1594 1947 -1794 208 -45 336 -58 565 -58 229 0 357 13 565 58 918 200 1672
895 1947 1795 78 257 111 485 111 770 0 537 -144 1015 -438 1455 -427 638
-1077 1043 -1842 1149 -111 16 -403 27 -498 20z m480 -944 c223 -44 435 -132
630 -261 154 -102 364 -312 464 -464 131 -198 216 -405 263 -636 19 -97 23
-145 23 -319 0 -174 -4 -222 -23 -319 -67 -331 -217 -622 -441 -853 -265 -276
-556 -436 -922 -510 -97 -19 -145 -23 -319 -23 -174 0 -222 4 -319 23 -354 72
-650 231 -903 488 -240 244 -391 531 -460 875 -19 97 -23 145 -23 319 0 174 4
222 23 319 47 231 132 438 263 636 100 152 310 362 464 464 197 130 414 220
631 260 155 29 160 29 359 26 136 -2 207 -8 290 -25z"/>
</g>
</svg>
