<?xml version="1.0" encoding="UTF-8" standalone="no"?>
<!-- Created with Inkscape (http://www.inkscape.org/) -->

<svg
   width="99mm"
   height="99mm"
   viewBox="0 0 99 99"
   version="1.1"
   id="svg375"
   inkscape:version="1.2.2 (732a01da63, 2022-12-09)"
   sodipodi:docname="dibujo3.svg"
   xmlns:inkscape="http://www.inkscape.org/namespaces/inkscape"
   xmlns:sodipodi="http://sodipodi.sourceforge.net/DTD/sodipodi-0.dtd"
   xmlns="http://www.w3.org/2000/svg"
   xmlns:svg="http://www.w3.org/2000/svg">
  <sodipodi:namedview
     id="namedview377"
     pagecolor="#ffffff"
     bordercolor="#000000"
     borderopacity="0.25"
     inkscape:showpageshadow="2"
     inkscape:pageopacity="0.0"
     inkscape:pagecheckerboard="0"
     inkscape:deskcolor="#d1d1d1"
     inkscape:document-units="mm"
     showgrid="false"
     inkscape:zoom="1.0129245"
     inkscape:cx="84.409055"
     inkscape:cy="252.23993"
     inkscape:window-width="1920"
     inkscape:window-height="991"
     inkscape:window-x="-9"
     inkscape:window-y="-9"
     inkscape:window-maximized="1"
     inkscape:current-layer="g332" />
  <defs
     id="defs372" />
  <g
     inkscape:label="Capa 1"
     inkscape:groupmode="layer"
     id="layer1">
    <g
       id="g332"
       transform="translate(-36.940303,-139.81904)">
      <path
         style="display:inline;fill:#c8ab37;stroke-width:0.211667"
         d="m 83.003404,237.091 c -3.65778,-0.256 -9.16398,-1.4511 -12.6305,-2.74139 -4.17919,-1.55556 -10.17662,-4.98594 -13.19043,-7.54459 -3.36418,-2.8561 -5.29716,-4.83787 -8.09995,-8.30435 -1.23012,-1.52141 -3.91421,-5.98088 -4.99296,-8.29551 -7.22416,-15.5007 -5.91623,-32.66318 3.57039,-46.85013 2.72923,-4.08147 7.47505,-9.07462 10.79012,-11.35242 0.40746,-0.27996 0.86261,-0.62714 1.01145,-0.77149 0.65681,-0.63702 4.42099,-2.80095 7.13772,-4.1033 3.28291,-1.57376 5.16315,-2.24965 8.78416,-3.15767 3.41484,-0.85631 4.51493,-1.0249 8.3251,-1.27582 13.94982,-0.91868 26.807206,3.93805 36.656316,13.84648 5.49151,5.52458 9.05907,11.28324 11.42847,18.4475 3.92592,11.87071 3.05867,24.59628 -2.43692,35.758 -2.54482,5.16861 -5.44035,9.15241 -9.54916,13.13813 -8.10281,7.86009 -18.59802,12.53523 -29.670566,13.21691 -3.52955,0.21729 -3.88808,0.21677 -7.13324,-0.0103 z m 8.84543,-0.85109 c 2.71247,-0.29546 5.58598,-0.88403 8.719796,-1.78604 2.58654,-0.74448 3.21206,-0.99572 7.17998,-2.88375 1.87825,-0.89371 6.47637,-3.73686 7.28105,-4.50206 0.1391,-0.13228 0.88992,-0.74283 1.66847,-1.35678 1.76816,-1.39431 5.71719,-5.51216 7.28897,-7.60057 4.542,-6.03489 7.36628,-12.59445 8.90321,-20.67817 0.51551,-2.71139 0.62398,-10.64772 0.18691,-13.67607 -1.56097,-10.81573 -6.24153,-20.00416 -14.03276,-27.5478 -3.49261,-3.38162 -8.08897,-6.54643 -12.29197,-8.4636 -1.01287,-0.46201 -2.12746,-0.97078 -2.47686,-1.13059 -1.812,-0.82878 -6.586906,-2.14755 -10.053886,-2.77675 -2.58689,-0.46948 -10.74501,-0.5371 -13.86417,-0.11492 -6.67503,0.90348 -13.55146,3.52379 -19.26166,7.33977 -3.86274,2.58138 -6.56518,4.99544 -10.06345,8.98957 -1.86959,2.13459 -4.25545,5.78293 -5.77731,8.83435 -8.78953,17.62361 -5.87145,38.2269 7.47548,52.78109 7.0275,7.66314 17.12752,12.91677 27.62694,14.37043 3.17271,0.43926 8.45943,0.53215 11.49126,0.20189 z m -8.10459,-0.83695 c -3.01894,-0.19074 -5.47198,-0.59896 -8.80475,-1.46522 -7.80212,-2.02796 -15.15802,-6.40301 -20.97891,-12.47757 -6.38397,-6.66219 -10.14179,-13.99163 -12.0586,-23.51969 -0.43811,-2.17775 -0.48976,-3.02505 -0.49038,-8.04334 -7.6e-4,-6.14477 0.15662,-7.48151 1.408,-11.95916 2.34867,-8.40392 6.55743,-15.37894 12.9043,-21.3858 5.43879,-5.14743 12.35554,-8.94817 19.60799,-10.77456 4.46468,-1.12434 6.79996,-1.41761 11.37568,-1.42856 5.78191,-0.0139 10.81235,0.83561 15.973536,2.69736 7.49478,2.70351 14.57687,7.84593 19.95191,14.48739 6.18213,7.63871 10.01603,18.65175 9.87395,28.36333 -0.10973,7.50075 -1.56236,13.7138 -4.72348,20.20278 -1.10105,2.26017 -1.42417,2.81036 -3.44886,5.87242 -3.8371,5.80309 -11.2386,12.11763 -17.62456,15.03628 -0.98954,0.45226 -2.08491,0.9526 -2.43416,1.11187 -1.34735,0.61444 -3.0707,1.17733 -5.820836,1.90125 -4.60356,1.2118 -9.74768,1.69478 -14.71083,1.38122 z m 9.525,-1.61228 c 4.63244,-0.66475 9.002336,-2.02645 13.167266,-4.10305 4.92034,-2.45324 8.42477,-4.99667 12.14574,-8.81513 5.17162,-5.30712 8.51274,-10.94282 10.74383,-18.12237 3.82031,-12.29363 1.81787,-26.24167 -5.33429,-37.15623 -1.76806,-2.69813 -2.69875,-3.8492 -5.27482,-6.52376 -3.87926,-4.02759 -7.82324,-6.8568 -12.95689,-9.2946 -6.817077,-3.23722 -14.195136,-4.62988 -21.804176,-4.1157 -8.84213,0.59752 -16.59516,3.44616 -23.59004,8.66753 -2.85924,2.13429 -6.35249,5.49967 -8.26579,7.9632 -0.17462,0.22484 -0.61106,0.78949 -0.96987,1.25478 -1.20642,1.56444 -3.47977,5.37696 -4.44768,7.45898 -4.87244,10.48091 -5.53176,22.19219 -1.86119,33.06011 0.93542,2.76962 2.79049,6.88087 3.74681,8.30374 0.26115,0.38855 0.72798,1.1417 1.03739,1.67365 1.91431,3.2911 6.86364,8.55483 10.79208,11.47762 1.36219,1.01348 2.51927,1.84269 2.57128,1.84269 0.052,0 0.74725,0.39749 1.54497,0.88331 5.39268,3.28424 12.3395,5.42099 19.12454,5.88246 2.97616,0.20241 6.80436,0.0684 9.63084,-0.33723 z m -40.74583,-34.46852 c 0,-1.55356 0.24511,-1.83895 1.20413,-1.40198 0.4769,0.21729 0.52724,0.33885 0.41832,1.01008 -0.0681,0.41969 -0.029,0.94018 0.0868,1.15664 0.14005,0.2617 0.13971,0.39358 -10e-4,0.39358 -0.11642,0 -0.31362,-0.1905 -0.43823,-0.42334 -0.2897,-0.5413 -0.84667,-0.54952 -0.84667,-0.0125 0,0.22596 -0.0952,0.46971 -0.21166,0.54165 -0.13294,0.0822 -0.21167,-0.38807 -0.21167,-1.26415 z m 1.3406,-0.41371 c 0.13828,-0.36035 -0.38188,-0.85054 -0.69633,-0.6562 -0.12152,0.0751 -0.22094,0.32142 -0.22094,0.54739 0,0.48507 0.73923,0.57277 0.91727,0.10881 z m 3.3659,1.56828 c -1.06082,-0.43501 -1.013,-2.12982 0.0717,-2.54224 0.73684,-0.28014 1.6025,0.13895 1.87243,0.90649 0.16454,0.46784 0.11981,0.69612 -0.22797,1.16367 -0.47318,0.63613 -0.97771,0.77491 -1.71619,0.47208 z m 1.31088,-0.54054 c 0.483,-0.483 0.40806,-1.08985 -0.18236,-1.47671 -0.97283,-0.63742 -2.04512,0.54518 -1.27046,1.40117 0.44758,0.49457 1.00481,0.52355 1.45282,0.0755 z m 3.3239,0.31323 c -0.63821,-0.59458 -0.54019,-1.5932 0.2112,-2.1516 1.35556,-1.00741 2.87025,0.96659 1.66585,2.17099 -0.54627,0.54627 -1.27801,0.53871 -1.87705,-0.0194 z m 1.62305,-0.23461 c 0.40336,-0.40336 0.30852,-1.39526 -0.15724,-1.64453 -0.55072,-0.29473 -1.49376,0.1323 -1.49376,0.67642 0,1.02915 1.00226,1.61685 1.651,0.96811 z m 2.83682,-0.73268 0.063,-1.44749 0.71483,-0.0683 c 0.39316,-0.0376 0.81702,0.0339 0.94192,0.15875 0.16166,0.16167 0.001,0.22708 -0.55609,0.22708 -0.64205,0 -0.78316,0.0763 -0.78316,0.42334 0,0.31044 0.14111,0.42333 0.52916,0.42333 0.29105,0 0.52917,0.0953 0.52917,0.21167 0,0.11641 -0.23812,0.21166 -0.52917,0.21166 -0.41992,0 -0.52916,0.10667 -0.52916,0.51668 0,0.28417 -0.0998,0.57835 -0.22177,0.65373 -0.1485,0.0918 -0.20094,-0.34114 -0.15875,-1.31042 z m 4.7726,1.28822 c -0.0873,-0.0882 -0.15875,-0.66843 -0.15875,-1.28932 0,-0.99856 -0.0503,-1.12889 -0.43583,-1.12889 -0.2397,0 -0.37696,-0.0952 -0.30501,-0.21166 0.16132,-0.26101 2.01084,-0.28372 2.01084,-0.0247 0,0.10284 -0.18545,0.23547 -0.4121,0.29474 -0.33707,0.0881 -0.42377,0.32737 -0.47625,1.31401 -0.0353,0.66343 -0.13559,1.13405 -0.2229,1.04581 z m 3.54541,-0.13114 c -0.57172,-0.3242 -0.73375,-0.59855 -0.73759,-1.24884 -0.004,-0.68078 0.65134,-1.30281 1.37259,-1.30281 1.22192,0 1.8253,1.50845 0.9525,2.38125 -0.47419,0.47419 -0.95985,0.52632 -1.5875,0.1704 z m 1.3335,-0.4244 c 0.45149,-0.45149 0.30746,-1.42405 -0.24839,-1.67731 -0.72056,-0.32831 -1.40261,0.0792 -1.40261,0.83809 0,0.69813 0.34424,1.09322 0.9525,1.09322 0.24448,0 0.5588,-0.1143 0.6985,-0.254 z m 2.76876,0.56937 c -0.0621,-0.11525 -0.12864,-0.76055 -0.14777,-1.43401 -0.0389,-1.37054 0.22819,-1.65705 1.15231,-1.236 0.42997,0.19591 0.51657,0.36792 0.46275,0.91909 -0.0508,0.51983 -0.18791,0.70652 -0.58766,0.79995 -0.32564,0.0761 -0.56748,0.31688 -0.64404,0.64119 -0.0674,0.28562 -0.17344,0.42502 -0.23559,0.30978 z m 1.04538,-1.84995 c -0.0372,-0.26194 -0.21051,-0.47625 -0.38514,-0.47625 -0.17462,0 -0.34794,0.21431 -0.38514,0.47625 -0.0521,0.36654 0.0367,0.47625 0.38514,0.47625 0.34848,0 0.4372,-0.10971 0.38514,-0.47625 z m 8.42334,1.78558 c -0.20996,-0.33972 -0.0839,-2.47668 0.15506,-2.62901 0.35109,-0.22379 1.57272,-0.19774 1.71757,0.0366 0.0675,0.10924 -0.23563,0.2283 -0.67367,0.26458 -0.5576,0.0462 -0.81746,0.17703 -0.86661,0.43637 -0.0545,0.28766 0.0751,0.37042 0.58032,0.37042 0.35779,0 0.65052,0.0953 0.65052,0.21167 0,0.11641 -0.28575,0.21166 -0.635,0.21166 -0.49389,0 -0.635,0.0941 -0.635,0.42334 0,0.35278 0.14111,0.42333 0.84667,0.42333 0.46566,0 0.84666,0.0952 0.84666,0.21167 0,0.25195 -1.83269,0.28824 -1.98652,0.0393 z m 4.03264,0.0312 c -0.30865,-0.30864 -0.11288,-0.49487 0.38805,-0.36914 0.44445,0.11155 0.52917,0.0582 0.52917,-0.33328 0,-0.28252 -0.16097,-0.50819 -0.4087,-0.57297 -0.46454,-0.12148 -0.69119,-0.55725 -0.52079,-1.0013 0.17518,-0.45652 0.63153,-0.55065 1.06766,-0.22022 0.36562,0.277 0.35321,0.29666 -0.19109,0.30296 -0.72551,0.008 -0.74983,0.28568 -0.0529,0.60322 0.85856,0.39118 0.60732,1.73184 -0.32455,1.73184 -0.19015,0 -0.40922,-0.0635 -0.48683,-0.14111 z m 4.09222,-1.12889 c 0,-1.14102 -0.0443,-1.27 -0.43583,-1.27 -0.2397,0 -0.37696,-0.0952 -0.30501,-0.21166 0.16174,-0.2617 1.73092,-0.28168 1.89013,-0.0241 0.0638,0.10318 -0.0735,0.23714 -0.30501,0.29769 -0.35687,0.0933 -0.42095,0.29032 -0.42095,1.29406 0,0.65119 -0.0953,1.18398 -0.21167,1.18398 -0.11759,0 -0.21166,-0.56444 -0.21166,-1.27 z m 2.383519,1.05834 c 0.35917,-1.27935 0.91315,-2.53472 1.09218,-2.47504 0.283957,0.0947 1.172247,2.31566 1.023147,2.55817 -0.0639,0.10394 -0.24808,-0.0628 -0.40928,-0.37041 -0.37229,-0.71054 -0.667147,-0.70537 -1.294007,0.0227 -0.27565,0.32015 -0.461069,0.43921 -0.41204,0.26459 z m 1.21481,-1.48167 c 0,-0.11642 -0.042,-0.21167 -0.0933,-0.21167 -0.0513,0 -0.15221,0.0952 -0.22416,0.21167 -0.0719,0.11642 -0.0299,0.21167 0.0933,0.21167 0.12329,0 0.22416,-0.0952 0.22416,-0.21167 z m 3.333747,1.46471 c -0.28108,-0.16371 -0.37042,-0.49398 -0.37042,-1.36939 0,-0.63451 0.0952,-1.15365 0.21167,-1.15365 0.11642,0 0.21167,0.47924 0.21167,1.06497 0,0.79301 0.0889,1.09909 0.34811,1.19856 0.48086,0.18453 0.95673,-0.52529 0.87893,-1.31103 -0.0346,-0.34925 0.0292,-0.68263 0.14171,-0.74084 0.27313,-0.14128 0.14257,1.92956 -0.14345,2.27542 -0.26206,0.31689 -0.7713,0.33122 -1.27822,0.036 z m 3.43958,-1.14136 c 0,-1.54398 0.24598,-1.83855 1.17992,-1.41302 0.44359,0.20211 0.51182,0.36559 0.47542,1.13908 -0.0234,0.4967 0.0309,1.09359 0.12055,1.32642 0.11991,0.3113 0.0304,0.26929 -0.33811,-0.15875 -0.58593,-0.68051 -1.01444,-0.75285 -1.01444,-0.17124 0,0.22596 -0.0953,0.46971 -0.21167,0.54166 -0.13293,0.0822 -0.21167,-0.38807 -0.21167,-1.26415 z m 1.23181,-0.58793 c -0.0372,-0.26194 -0.21052,-0.47625 -0.38514,-0.47625 -0.17463,0 -0.34794,0.21431 -0.38514,0.47625 -0.0521,0.36654 0.0367,0.47625 0.38514,0.47625 0.34848,0 0.4372,-0.10971 0.38514,-0.47625 z m 2.63338,1.74625 c 0.35918,-1.27935 0.91315,-2.53472 1.09219,-2.47504 0.25602,0.0853 1.18893,2.32268 1.03202,2.47504 -0.06,0.0582 -0.25309,-0.10848 -0.42918,-0.37042 -0.41807,-0.62185 -0.67468,-0.60068 -1.28299,0.10583 -0.27565,0.32015 -0.46107,0.43921 -0.41204,0.26459 z m 1.21481,-1.48167 c 0,-0.11642 -0.042,-0.21167 -0.0933,-0.21167 -0.0513,0 -0.15221,0.0952 -0.22416,0.21167 -0.072,0.11642 -0.0299,0.21167 0.0933,0.21167 0.12329,0 0.22416,-0.0952 0.22416,-0.21167 z m 2.96334,0.35983 c 0,-0.77999 0.0714,-1.41964 0.15875,-1.42144 0.0873,-0.002 0.51309,0.40301 0.94618,0.89958 l 0.78743,0.90286 0.006,-0.89958 c 0.003,-0.49477 0.10158,-0.89958 0.21799,-0.89958 0.25728,0 0.28647,2.46878 0.0311,2.62663 -0.0993,0.0614 -0.50415,-0.3378 -0.89959,-0.88709 l -0.71898,-0.99871 -0.0671,0.84667 c -0.11751,1.48363 -0.4621,1.35735 -0.4621,-0.16934 z m 5.23875,1.21156 c -0.0873,-0.0882 -0.15875,-0.66828 -0.15875,-1.28917 0,-0.99856 -0.0503,-1.12889 -0.43583,-1.12889 -0.2397,0 -0.37696,-0.0952 -0.30501,-0.21166 0.0719,-0.11642 0.55382,-0.21167 1.07083,-0.21167 0.517,0 0.94001,0.0952 0.94001,0.21167 0,0.11641 -0.18596,0.21166 -0.41324,0.21166 -0.35773,0 -0.42169,0.17314 -0.47625,1.28918 -0.0347,0.70904 -0.13445,1.21704 -0.22176,1.12888 z m -35.507086,-1.36636 c 0,-1.41776 0.26644,-1.71091 1.17767,-1.29573 0.53059,0.24175 0.7276,1.14641 0.30635,1.40675 -0.12833,0.0793 -0.078,0.32981 0.13018,0.64749 0.30305,0.46251 0.30433,0.51813 0.0119,0.51813 -0.18017,0 -0.38804,-0.1905 -0.46194,-0.42334 -0.0739,-0.23283 -0.27082,-0.42333 -0.4376,-0.42333 -0.16678,0 -0.30324,0.1905 -0.30324,0.42333 0,0.23284 -0.0953,0.42334 -0.21166,0.42334 -0.11772,0 -0.21167,-0.56666 -0.21167,-1.27664 z m 1.16417,-0.52543 c 0,-0.59225 -0.61997,-0.52662 -0.70511,0.0747 -0.0544,0.38392 0.0169,0.47832 0.3175,0.42043 0.22055,-0.0425 0.38761,-0.25585 0.38761,-0.49508 z m -33.12583,-8.78127 v -4.44499 h 4.09659 c 4.05505,0 4.10227,-0.005 4.65666,-0.51906 0.77395,-0.71727 0.78059,-1.95145 0.0144,-2.67197 -0.53319,-0.50139 -0.63984,-0.51464 -4.65666,-0.57864 l -4.11099,-0.0655 v -1.27592 -1.27592 l 4.39209,0.0742 c 4.04407,0.0683 4.46177,0.11124 5.27165,0.54176 1.60567,0.85355 2.30008,2.23094 2.14712,4.25889 -0.11866,1.57331 -0.61523,2.53582 -1.70831,3.31132 -0.88112,0.62512 -0.94608,0.63665 -4.17588,0.74084 l -3.28083,0.10583 -0.0586,3.12208 -0.0586,3.12208 h -1.26434 -1.26434 z m 22.98391,1.37584 -1.65021,-3.06917 h -2.83518 -2.83519 v -1.27 -1.27 h 3.88492 c 3.83038,0 3.89279,-0.007 4.445,-0.51906 0.42426,-0.39319 0.56008,-0.72263 0.56008,-1.35852 0,-1.97321 -0.41244,-2.14408 -5.17532,-2.14408 h -3.71468 v -1.27 -1.27 l 3.75708,0.001 c 2.0664,6.3e-4 4.13808,0.10525 4.60375,0.23245 2.01946,0.55162 3.072,2.04969 3.06452,4.36168 -0.007,2.18687 -0.95926,3.78783 -2.59656,4.36575 -0.34784,0.12278 -0.32885,0.22453 0.23304,1.24839 1.66557,3.03487 2.57983,4.76899 2.57983,4.89317 0,0.0755 -0.60094,0.13728 -1.33543,0.13728 h -1.33544 z m 7.10803,2.90966 c 1.05294,-2.38038 7.48789,-14.83741 7.60338,-14.71891 0.19921,0.20441 7.38968,14.54829 7.38968,14.74127 0,0.0754 -0.66804,0.13714 -1.48454,0.13714 h -1.48453 l -0.55474,-1.21708 c -0.30511,-0.66939 -1.25632,-2.67998 -2.1138,-4.46796 -0.85748,-1.78799 -1.55906,-3.3358 -1.55906,-3.43958 0,-0.48888 -0.4543,-0.0986 -0.82747,0.71088 -0.2281,0.49477 -0.95049,2.04258 -1.60532,3.43958 -0.65483,1.397 -1.43554,3.08769 -1.73491,3.75708 l -0.5443,1.21708 h -1.57748 c -0.8676,0 -1.54572,-0.0718 -1.50691,-0.1595 z m 23.459716,0.0618 c 0,-0.18715 7.40091,-14.9306 7.49486,-14.9306 0.086,0 7.53348,14.76603 7.53348,14.93662 0,0.0505 -0.69113,0.0917 -1.53583,0.0917 -1.53015,0 -1.53694,-0.003 -1.83551,-0.68791 -0.46161,-1.05967 -3.70185,-7.83074 -3.97484,-8.30615 -0.13314,-0.23187 -0.2781,-0.37474 -0.32213,-0.3175 -0.044,0.0572 -1.03628,2.15194 -2.20499,4.6549 l -2.12493,4.55083 -1.51505,0.0622 c -0.83328,0.0342 -1.51506,0.01 -1.51506,-0.0541 z m -5.45312,-7.57518 0.0556,-7.46125 1.21709,-0.0635 1.21708,-0.0635 v 6.66729 6.66729 l -0.79375,0.59286 c -0.43656,0.32607 -0.91962,0.71191 -1.07345,0.85743 -0.15384,0.14553 -0.36937,0.26459 -0.47896,0.26459 -0.12185,0 -0.17765,-2.89863 -0.14363,-7.46125 z"
         id="path336" />
      <path
         style="display:inline;fill:none;stroke-width:0.211667"
         d="M 36.461576,194.79478 V 140.18479 H 91.600743 146.7399 v 54.60999 54.61 H 91.600743 36.461576 Z m 54.969897,47.20421 c 11.072547,-0.68168 21.567757,-5.35682 29.670567,-13.21691 4.10881,-3.98572 7.00434,-7.96952 9.54916,-13.13813 5.49559,-11.16172 6.36284,-23.88729 2.43692,-35.758 -2.3694,-7.16426 -5.93696,-12.92292 -11.42847,-18.4475 -9.84911,-9.90843 -22.706497,-14.76516 -36.656307,-13.84648 -3.81018,0.25092 -4.91027,0.41951 -8.3251,1.27582 -3.62102,0.90802 -5.50126,1.58391 -8.78417,3.15767 -2.71673,1.30235 -6.48091,3.46628 -7.13772,4.1033 -0.14883,0.14435 -0.60399,0.49153 -1.01144,0.77149 -2.0375,1.39998 -5.406568,4.59379 -7.818882,7.41214 -7.739902,9.04269 -11.966659,21.8925 -11.036292,33.55156 0.515379,6.45856 1.842241,11.54762 4.49466,17.23885 1.078744,2.31463 3.762836,6.7741 4.992956,8.29551 2.802788,3.46648 4.735778,5.44825 8.099948,8.30435 3.01382,2.55865 9.01125,5.98903 13.19043,7.54459 3.46652,1.29029 8.97272,2.48539 12.63051,2.74139 3.24515,0.22712 3.60368,0.22764 7.13323,0.0103 z m -9.77906,-1.06333 c -13.37233,-1.85142 -25.08883,-9.322 -32.634652,-20.80826 -7.252117,-11.03917 -9.40019,-25.56199 -5.65672,-38.24428 1.837509,-6.22519 5.277339,-12.72153 8.966257,-16.93333 3.498265,-3.99413 6.200705,-6.40819 10.063445,-8.98957 5.7102,-3.81598 12.58663,-6.43629 19.26167,-7.33977 3.11916,-0.42218 11.27727,-0.35456 13.86416,0.11492 3.46698,0.6292 8.241887,1.94797 10.053887,2.77675 0.3494,0.15981 1.46399,0.66858 2.47686,1.13059 7.50804,3.42474 14.7832,9.81458 19.31408,16.96374 3.74614,5.91092 5.99752,12.02785 7.01065,19.04766 0.43707,3.02835 0.3286,10.96468 -0.18691,13.67607 -1.53693,8.08372 -4.36121,14.64328 -8.90321,20.67817 -1.57178,2.08841 -5.52081,6.20626 -7.28897,7.60057 -0.77855,0.61395 -1.52937,1.2245 -1.66847,1.35678 -0.80468,0.7652 -5.4028,3.60835 -7.28105,4.50206 -3.96792,1.88803 -4.59344,2.13927 -7.17998,2.88375 -3.133817,0.90201 -6.007327,1.49058 -8.719797,1.78604 -3.03183,0.33026 -8.31855,0.23737 -11.49125,-0.20189 z m 12.80583,-0.96272 c 3.33013,-0.41231 8.623877,-1.81992 11.112497,-2.95481 0.34925,-0.15927 1.44462,-0.65961 2.43416,-1.11187 6.38596,-2.91865 13.78746,-9.23319 17.62456,-15.03628 2.02469,-3.06206 2.34781,-3.61225 3.44886,-5.87242 3.8888,-7.98273 5.44488,-16.85608 4.44059,-25.32186 -1.88646,-15.90209 -11.51505,-29.31864 -25.99608,-36.22312 -3.74734,-1.78671 -8.658327,-3.24097 -13.064587,-3.86872 -3.20713,-0.45692 -9.6655,-0.45204 -12.67582,0.01 -11.28338,1.73019 -20.41883,6.71641 -28.129768,15.35351 -4.270469,4.78339 -7.643701,11.10981 -9.538215,17.88869 -1.251384,4.47765 -1.408764,5.81439 -1.408006,11.95916 7.41e-4,6.03287 0.203544,7.70239 1.497234,12.32568 2.923979,10.44949 9.58596,19.57439 18.822075,25.78055 2.05604,1.38155 6.55151,3.69484 8.97525,4.61851 6.79727,2.5904 14.52881,3.43506 22.45725,2.45342 z m -9.525,-0.94739 c -3.02993,-0.20608 -4.72038,-0.4796 -7.87143,-1.27363 -4.07344,-1.02648 -8.03519,-2.64905 -11.25312,-4.60883 -0.79771,-0.48582 -1.49294,-0.88331 -1.54496,-0.88331 -0.052,0 -1.2091,-0.82921 -2.57128,-1.84269 -3.92844,-2.92279 -8.877774,-8.18652 -10.792083,-11.47762 -0.309417,-0.53195 -0.776244,-1.2851 -1.037393,-1.67365 -0.956318,-1.42287 -2.811395,-5.53412 -3.746815,-8.30374 -3.670564,-10.86792 -3.011249,-22.5792 1.861198,-33.06011 0.967904,-2.08202 3.241254,-5.89454 4.447677,-7.45898 0.358805,-0.46529 0.795247,-1.02994 0.969872,-1.25478 1.913294,-2.46353 5.406554,-5.82891 8.265784,-7.9632 6.99488,-5.22137 14.74791,-8.07001 23.59005,-8.66753 7.60903,-0.51418 14.987087,0.87848 21.804167,4.1157 5.13365,2.4378 9.07763,5.26701 12.95689,9.2946 2.57607,2.67456 3.50676,3.82563 5.27482,6.52376 5.44822,8.31425 8.02647,18.75488 7.05448,28.56707 -1.17764,11.88807 -7.1017,22.84408 -16.3987,30.32783 -2.65699,2.13879 -4.81837,3.50727 -8.21106,5.19883 -6.96072,3.47055 -14.750027,4.98764 -22.798097,4.44028 z M 54.241575,204.94229 c 0,-0.53703 0.556971,-0.52881 0.846667,0.0125 0.124611,0.23283 0.321811,0.42333 0.438231,0.42333 0.14074,0 0.14108,-0.13188 10e-4,-0.39357 -0.11585,-0.21647 -0.15491,-0.73696 -0.0868,-1.15664 0.10892,-0.67123 0.0586,-0.7928 -0.418318,-1.01009 -0.959031,-0.43696 -1.204144,-0.15157 -1.204144,1.40199 0,0.87608 0.07873,1.34631 0.211667,1.26415 0.116416,-0.0719 0.211666,-0.3157 0.211666,-0.54166 z m 0,-1.24501 c 0,-0.53366 0.36292,-0.74947 0.737524,-0.43858 0.385394,0.31986 0.175404,0.84942 -0.336836,0.84942 -0.255515,0 -0.400688,-0.14885 -0.400688,-0.41084 z m 5.999358,1.20501 c 0.34779,-0.46755 0.39251,-0.69583 0.22798,-1.16367 -0.43007,-1.2229 -2.1833,-1.33197 -2.62756,-0.16346 -0.59914,1.57585 1.39442,2.67844 2.39958,1.32713 z m -1.85813,-0.144 c -0.77466,-0.85599 0.29764,-2.03859 1.27047,-1.40117 0.59042,0.38686 0.66535,0.99371 0.18235,1.47671 -0.44801,0.44801 -1.00524,0.41903 -1.45282,-0.0755 z m 6.65377,0.40816 c 1.2044,-1.2044 -0.31029,-3.1784 -1.66585,-2.17099 -0.75138,0.5584 -0.84941,1.55702 -0.2112,2.1516 0.59905,0.5581 1.33079,0.56566 1.87705,0.0194 z m -1.68588,-0.40942 c -0.3655,-0.68293 -0.25132,-1.20129 0.32215,-1.46258 0.74706,-0.34038 1.36373,0.0118 1.36373,0.77878 0,0.32187 -0.1143,0.69952 -0.254,0.83922 -0.38885,0.38886 -1.18696,0.30223 -1.43188,-0.15542 z m 4.64922,0.0794 c 0,-0.41001 0.10924,-0.51668 0.52916,-0.51668 0.29104,0 0.52917,-0.0953 0.52917,-0.21166 0,-0.11642 -0.23813,-0.21167 -0.52917,-0.21167 -0.38805,0 -0.52916,-0.11289 -0.52916,-0.42333 0,-0.34706 0.14111,-0.42334 0.78316,-0.42334 0.55756,0 0.71775,-0.0654 0.55608,-0.22708 -0.12489,-0.1249 -0.54876,-0.19634 -0.94191,-0.15875 l -0.71483,0.0683 -0.063,1.44749 c -0.0422,0.96928 0.0102,1.4022 0.15875,1.31042 0.12197,-0.0754 0.22176,-0.36956 0.22176,-0.65373 z m 5.09124,-1.72829 c 0.22665,-0.0593 0.41209,-0.1919 0.41209,-0.29474 0,-0.25903 -1.84952,-0.23632 -2.01083,0.0247 -0.072,0.11641 0.0653,0.21166 0.305,0.21166 0.38552,0 0.43583,0.13033 0.43583,1.12889 0,1.5439 0.30224,1.73673 0.38166,0.24351 0.0525,-0.98664 0.13918,-1.22586 0.47625,-1.31401 z m 4.43376,2.05828 c 0.87279,-0.8728 0.26941,-2.38125 -0.9525,-2.38125 -0.72126,0 -1.37661,0.62203 -1.3726,1.30281 0.004,0.65029 0.16588,0.92464 0.7376,1.24884 0.62765,0.35592 1.11331,0.30379 1.5875,-0.1704 z m -1.651,-0.254 c -0.42167,-0.42166 -0.30691,-1.39612 0.1961,-1.66533 0.69008,-0.36931 1.4549,0.0587 1.4549,0.81413 0,0.70932 -0.34119,1.1052 -0.9525,1.1052 -0.24448,0 -0.5588,-0.1143 -0.6985,-0.254 z m 5.04538,-0.3816 c 0.39975,-0.0934 0.5369,-0.28012 0.58766,-0.79995 0.0538,-0.55117 -0.0328,-0.72318 -0.46275,-0.91909 -0.92411,-0.42105 -1.19122,-0.13454 -1.1523,1.236 0.0398,1.40028 0.20429,1.88277 0.38335,1.12423 0.0766,-0.32431 0.31841,-0.56508 0.64404,-0.64119 z m -0.60452,-0.89898 c 0.0372,-0.26194 0.21051,-0.47625 0.38514,-0.47625 0.17462,0 0.34793,0.21431 0.38513,0.47625 0.0521,0.36654 -0.0367,0.47625 -0.38513,0.47625 -0.34848,0 -0.4372,-0.10971 -0.38514,-0.47625 z m 11.18013,1.74625 c 0,-0.11642 -0.381,-0.21167 -0.84666,-0.21167 -0.70556,0 -0.84667,-0.0705 -0.84667,-0.42333 0,-0.32926 0.14111,-0.42334 0.635,-0.42334 0.34925,0 0.635,-0.0953 0.635,-0.21166 0,-0.11642 -0.29273,-0.21167 -0.65052,-0.21167 -0.50517,0 -0.63484,-0.0828 -0.58032,-0.37042 0.0491,-0.25934 0.30901,-0.39019 0.86661,-0.43637 0.43804,-0.0363 0.74119,-0.15534 0.67367,-0.26458 -0.14485,-0.23438 -1.36648,-0.26043 -1.71757,-0.0366 -0.23898,0.15233 -0.36502,2.28929 -0.15506,2.62901 0.15383,0.24891 1.98652,0.21262 1.98652,-0.0393 z m 3.13267,-0.0423 c 0.44317,-0.44316 0.29925,-1.21612 -0.27517,-1.47784 -0.69691,-0.31754 -0.67259,-0.59483 0.0529,-0.60322 0.5443,-0.006 0.55671,-0.026 0.19109,-0.30296 -0.43613,-0.33043 -0.89248,-0.2363 -1.06766,0.22022 -0.1704,0.44405 0.0563,0.87982 0.52079,1.0013 0.24773,0.0648 0.4087,0.29045 0.4087,0.57297 0,0.39147 -0.0847,0.44483 -0.52917,0.33328 -0.29104,-0.0731 -0.52917,-0.0516 -0.52917,0.0476 0,0.49453 0.80498,0.63133 1.22767,0.20864 z m 3.429,-0.92998 c 0,-1.00374 0.0641,-1.20074 0.42095,-1.29406 0.23153,-0.0606 0.36878,-0.19451 0.30501,-0.29769 -0.15921,-0.25761 -1.72839,-0.23763 -1.89013,0.0241 -0.072,0.11641 0.0653,0.21166 0.30501,0.21166 0.39157,0 0.43583,0.12898 0.43583,1.27 0,0.70556 0.0941,1.27 0.21166,1.27 0.11642,0 0.21167,-0.53279 0.21167,-1.18398 z m 3.123277,0.12565 c 0.13742,0 0.38176,0.25173 0.54296,0.55939 0.1612,0.30766 0.34537,0.47435 0.40928,0.37041 0.1491,-0.24251 -0.73919,-2.46352 -1.02315,-2.55817 -0.11808,-0.0394 -0.39208,0.42998 -0.60887,1.04298 -0.604306,1.70872 -0.609416,1.7925 -0.0713,1.16747 0.27564,-0.32014 0.61361,-0.58208 0.75105,-0.58208 z m -0.26578,-0.635 c 0.072,-0.11642 0.17282,-0.21167 0.22416,-0.21167 0.0513,0 0.0933,0.0952 0.0933,0.21167 0,0.11642 -0.10087,0.21167 -0.22416,0.21167 -0.12329,0 -0.16529,-0.0952 -0.0933,-0.21167 z m 4.92947,1.42875 c 0.28602,-0.34586 0.41658,-2.4167 0.14345,-2.27542 -0.11252,0.0582 -0.17629,0.39159 -0.14171,0.74084 0.0778,0.78574 -0.39807,1.49556 -0.87893,1.31103 -0.25921,-0.0995 -0.34811,-0.40555 -0.34811,-1.19856 0,-0.58573 -0.0952,-1.06497 -0.21167,-1.06497 -0.11642,0 -0.21167,0.51914 -0.21167,1.15365 0,0.87541 0.0893,1.20568 0.37042,1.36939 0.50692,0.29526 1.01616,0.28093 1.27822,-0.036 z m 2.5847,-0.38291 c 0,-0.58161 0.42851,-0.50927 1.01444,0.17124 0.36854,0.42804 0.45802,0.47005 0.33811,0.15875 -0.0897,-0.23283 -0.14393,-0.82972 -0.12055,-1.32642 0.0364,-0.77349 -0.0318,-0.93697 -0.47542,-1.13908 -0.93394,-0.42553 -1.17992,-0.13096 -1.17992,1.41302 0,0.87608 0.0787,1.34631 0.21167,1.26415 0.11642,-0.0719 0.21167,-0.3157 0.21167,-0.54166 z m 0.0382,-1.31042 c 0.0372,-0.26194 0.21051,-0.47625 0.38514,-0.47625 0.17462,0 0.34794,0.21431 0.38514,0.47625 0.0521,0.36654 -0.0367,0.47625 -0.38514,0.47625 -0.34848,0 -0.4372,-0.10971 -0.38514,-0.47625 z m 4.54769,0.89958 c 0.12695,0 0.3749,0.21431 0.551,0.47625 0.17609,0.26194 0.36922,0.42863 0.42918,0.37042 0.15691,-0.15236 -0.776,-2.3897 -1.03202,-2.47504 -0.11809,-0.0394 -0.39208,0.42998 -0.60888,1.04298 -0.6043,1.70872 -0.60942,1.7925 -0.0713,1.16747 0.27565,-0.32014 0.60504,-0.58208 0.73199,-0.58208 z m -0.24672,-0.635 c 0.0719,-0.11642 0.17282,-0.21167 0.22416,-0.21167 0.0513,0 0.0933,0.0952 0.0933,0.21167 0,0.11642 -0.10087,0.21167 -0.22416,0.21167 -0.12328,0 -0.16529,-0.0952 -0.0933,-0.21167 z m 3.74294,0.52917 0.0671,-0.84667 0.71898,0.99871 c 0.39544,0.54929 0.80026,0.94848 0.89959,0.88709 0.2554,-0.15785 0.22621,-2.62663 -0.0311,-2.62663 -0.11641,0 -0.21451,0.40481 -0.21798,0.89958 l -0.006,0.89958 -0.78743,-0.90286 c -0.43309,-0.49657 -0.85887,-0.90138 -0.94619,-0.89958 -0.0873,0.002 -0.15875,0.64145 -0.15875,1.42144 0,1.52669 0.3446,1.65297 0.46211,0.16934 z m 5.47466,-1.37584 c 0.22728,0 0.41324,-0.0952 0.41324,-0.21166 0,-0.11642 -0.42301,-0.21167 -0.94001,-0.21167 -0.51701,0 -0.99888,0.0952 -1.07083,0.21167 -0.072,0.11641 0.0653,0.21166 0.30501,0.21166 0.38551,0 0.43583,0.13033 0.43583,1.12889 0,1.5892 0.3044,1.71743 0.38051,0.16029 0.0546,-1.11604 0.11852,-1.28918 0.47625,-1.28918 z m -35.781757,1.905 c 0,-0.23283 0.13646,-0.42333 0.30323,-0.42333 0.16679,0 0.3637,0.1905 0.4376,0.42333 0.0739,0.23284 0.28177,0.42334 0.46194,0.42334 0.29242,0 0.29114,-0.0556 -0.0119,-0.51813 -0.20815,-0.31768 -0.25851,-0.56818 -0.13017,-0.64749 0.42124,-0.26034 0.22423,-1.165 -0.30636,-1.40675 -0.91122,-0.41518 -1.17766,-0.12203 -1.17766,1.29573 0,0.70998 0.094,1.27664 0.21167,1.27664 0.11642,0 0.21167,-0.1905 0.21167,-0.42334 z m 0.0357,-1.30408 c 0.0386,-0.2723 0.21298,-0.49508 0.3876,-0.49508 0.45905,0 0.39582,0.82579 -0.0701,0.91551 -0.30057,0.0579 -0.37186,-0.0365 -0.3175,-0.42043 z m -29.83347,-7.533 0.0586,-3.12208 3.28083,-0.10583 c 3.2298,-0.10419 3.29476,-0.11572 4.17588,-0.74084 1.09309,-0.7755 1.58965,-1.73801 1.70832,-3.31132 0.15296,-2.02795 -0.54145,-3.40534 -2.14712,-4.25889 -0.80988,-0.43052 -1.22759,-0.47345 -5.27166,-0.54176 l -4.392083,-0.0742 v 1.27592 1.27592 l 4.110983,0.0655 c 4.01682,0.064 4.12347,0.0772 4.65666,0.57864 0.76621,0.72052 0.75956,1.9547 -0.0144,2.67197 -0.55439,0.51379 -0.60161,0.51906 -4.65666,0.51906 h -4.09659 v 4.44499 4.445 h 1.264342 1.264338 z m 24.71774,2.9848 c 0,-0.12418 -0.91426,-1.8583 -2.57983,-4.89326 -0.56189,-1.02386 -0.58088,-1.12561 -0.23304,-1.24839 1.6373,-0.57792 2.58948,-2.17888 2.59656,-4.36575 0.007,-2.31199 -1.04506,-3.81005 -3.06452,-4.36168 -0.46567,-0.1272 -2.53736,-0.23181 -4.60375,-0.23245 l -3.75708,-0.001 v 1.27 1.27 h 3.71467 c 4.76288,0 5.17533,0.17087 5.17533,2.14408 0,0.63589 -0.13582,0.96533 -0.56008,1.35852 -0.55221,0.51177 -0.61462,0.51906 -4.445,0.51906 h -3.88492 v 1.27 1.27 h 2.83518 2.83519 l 1.65021,3.06917 1.6502,3.06916 h 1.33544 c 0.73449,0 1.33544,-0.0618 1.33544,-0.13728 z m 6.41563,-1.0798 c 0.29937,-0.66939 1.08008,-2.36008 1.73491,-3.75708 0.65483,-1.397 1.37722,-2.94481 1.60532,-3.43958 0.37317,-0.80948 0.82747,-1.19976 0.82747,-0.71088 0,0.10378 0.70158,1.65159 1.55906,3.43958 0.85748,1.78798 1.80869,3.79857 2.1138,4.46796 l 0.55474,1.21708 h 1.48453 c 0.8165,0 1.48454,-0.0617 1.48454,-0.13714 0,-0.19298 -7.19047,-14.53686 -7.38968,-14.74127 -0.11549,-0.1185 -6.55044,12.33853 -7.60337,14.71891 -0.0388,0.0877 0.6393,0.1595 1.50691,0.1595 h 1.57747 z m 24.986067,-3.43958 c 1.16871,-2.50296 2.16096,-4.59767 2.20499,-4.6549 0.044,-0.0572 0.18899,0.0856 0.32213,0.3175 0.27299,0.47541 3.51323,7.24648 3.97484,8.30615 0.29857,0.68537 0.30536,0.68791 1.83551,0.68791 0.8447,0 1.53583,-0.0413 1.53583,-0.0917 0,-0.17059 -7.44744,-14.93662 -7.53348,-14.93662 -0.094,0 -7.49486,14.74345 -7.49486,14.9306 0,0.064 0.68178,0.0883 1.51506,0.0541 l 1.51505,-0.0622 z m -9.98557,4.18041 c 0.15383,-0.14552 0.63689,-0.53136 1.07345,-0.85743 l 0.79375,-0.59286 v -6.66729 -6.66729 l -1.21708,0.0635 -1.21709,0.0635 -0.0556,7.46125 c -0.034,4.56262 0.0218,7.46125 0.14363,7.46125 0.10959,0 0.32512,-0.11906 0.47896,-0.26459 z"
         id="path334" />
    </g>
  </g>
</svg>
