<svg version="1.2" xmlns="http://www.w3.org/2000/svg" viewBox="0 0 268 369" width="268" height="369">
	<title>map-pin-svg</title>
	<style>
		.s0 { fill: #fff } 
	</style>
	<g id="Layer">
		<g id="Layer">
			<path id="Layer" fill-rule="evenodd" class="s0" d="m264.3 131c0 89.8-119.3 230-124.3 235.9-1.5 1.7-3.5 2.7-5.7 2.7q0 0-0.1 0c-2.2-0.1-4.2-1-5.7-2.7-5-6-124.2-148.6-124.2-235.9 0-71.7 58.3-130 130-130 71.7 0 130 58.3 130 130zm-15 0c0-63.4-51.6-115-115-115-63.4 0-115 51.6-115 115 0 71.5 91.1 189.5 115 219.3 24-29.5 115-145.8 115-219.3z"/>
			<path id="Layer" fill-rule="evenodd" class="s0" d="m189.5 128.6c0 30.4-24.7 55.2-55.2 55.2-30.5 0-55.3-24.8-55.3-55.2 0-30.5 24.8-55.3 55.3-55.3 30.5 0 55.2 24.8 55.2 55.3zm-15 0c0-22.2-18-40.3-40.2-40.3-22.2 0-40.3 18.1-40.3 40.3 0 22.2 18.1 40.2 40.3 40.2 22.2 0 40.2-18 40.2-40.2z"/>
		</g>
		<g id="Layer">
		</g>
		<g id="Layer">
		</g>
		<g id="Layer">
		</g>
		<g id="Layer">
		</g>
		<g id="Layer">
		</g>
		<g id="Layer">
		</g>
		<g id="Layer">
		</g>
		<g id="Layer">
		</g>
		<g id="Layer">
		</g>
		<g id="Layer">
		</g>
		<g id="Layer">
		</g>
		<g id="Layer">
		</g>
		<g id="Layer">
		</g>
		<g id="Layer">
		</g>
		<g id="Layer">
		</g>
	</g>
</svg>