<?xml version="1.0" standalone="no"?>
<!DOCTYPE svg PUBLIC "-//W3C//DTD SVG 20010904//EN"
 "http://www.w3.org/TR/2001/REC-SVG-20010904/DTD/svg10.dtd">
<svg version="1.0" xmlns="http://www.w3.org/2000/svg"
 width="298.000000pt" height="300.000000pt" viewBox="0 0 298.000000 300.000000"
 preserveAspectRatio="xMidYMid meet">

<g transform="translate(0.000000,300.000000) scale(0.100000,-0.100000)"
fill="#fff" stroke="none">
<path d="M1366 2989 c-618 -63 -1129 -517 -1273 -1129 -35 -151 -42 -410 -15
-565 26 -147 65 -266 132 -403 l56 -113 -128 -377 c-70 -207 -128 -382 -128
-388 0 -6 180 46 401 117 l401 128 70 -35 c82 -41 242 -96 348 -119 42 -9 147
-19 240 -22 140 -4 184 -2 288 16 313 53 568 185 792 410 216 218 346 462 406
766 25 126 25 394 0 525 -102 528 -468 950 -975 1121 -179 61 -425 88 -615 68z
m360 -254 c446 -78 813 -400 952 -835 77 -243 72 -532 -14 -772 -122 -339
-414 -626 -754 -741 -330 -112 -703 -75 -999 98 l-63 37 -223 -71 c-123 -39
-227 -71 -232 -71 -5 0 24 100 65 223 l75 222 -54 86 c-156 245 -214 572 -154
864 101 490 490 870 984 959 105 19 309 19 417 1z"/>
<path d="M965 2232 c-50 -31 -123 -120 -147 -180 -32 -83 -32 -229 1 -331 70
-214 351 -564 566 -707 93 -62 279 -146 406 -185 147 -44 319 -1 417 105 33
36 43 57 57 121 13 55 15 83 7 98 -10 22 -290 179 -342 192 -31 7 -39 1 -129
-102 -45 -52 -80 -83 -92 -83 -23 0 -147 61 -205 101 -68 46 -144 114 -196
176 -46 54 -148 208 -148 224 0 4 26 39 58 77 94 112 93 101 20 298 -35 95
-72 179 -85 192 -19 18 -33 22 -90 22 -48 0 -77 -5 -98 -18z"/>
</g>
</svg>
